<?xml version="1.0" encoding="UTF-8" standalone="no"?>
<!-- Generator: Adobe Illustrator 19.0.0, SVG Export Plug-In . SVG Version: 6.00 Build 0)  -->

<svg
   xmlns:dc="http://purl.org/dc/elements/1.1/"
   xmlns:cc="http://creativecommons.org/ns#"
   xmlns:rdf="http://www.w3.org/1999/02/22-rdf-syntax-ns#"
   xmlns:svg="http://www.w3.org/2000/svg"
   xmlns="http://www.w3.org/2000/svg"
   xmlns:sodipodi="http://sodipodi.sourceforge.net/DTD/sodipodi-0.dtd"
   xmlns:inkscape="http://www.inkscape.org/namespaces/inkscape"
   version="1.1"
   id="Layer_1"
   x="0px"
   y="0px"
   viewBox="0 0 63.999999 63.999998"
   xml:space="preserve"
   sodipodi:docname="ncbi_config_button.svg"
   inkscape:version="0.92.2 5c3e80d, 2017-08-06"
   width="64"
   height="64"><metadata
     id="metadata49"><rdf:RDF><cc:Work
         rdf:about=""><dc:format>image/svg+xml</dc:format><dc:type
           rdf:resource="http://purl.org/dc/dcmitype/StillImage" /><dc:title></dc:title></cc:Work></rdf:RDF></metadata><defs
     id="defs47" /><sodipodi:namedview
     pagecolor="#ffffff"
     bordercolor="#666666"
     borderopacity="1"
     objecttolerance="10"
     gridtolerance="10"
     guidetolerance="10"
     inkscape:pageopacity="0"
     inkscape:pageshadow="2"
     inkscape:window-width="2091"
     inkscape:window-height="896"
     id="namedview45"
     showgrid="false"
     inkscape:pagecheckerboard="true"
     inkscape:zoom="7.7069084"
     inkscape:cx="42.011782"
     inkscape:cy="30.148557"
     inkscape:window-x="467"
     inkscape:window-y="448"
     inkscape:window-maximized="0"
     inkscape:current-layer="g10" /><g
     id="g12"
     transform="translate(0,-425.95001)"><g
       id="g10"><g
         id="g836"
         transform="matrix(0.99101945,0,0,1,-210.77499,212.97501)"><path
           inkscape:connector-curvature="0"
           id="path2"
           d="m 244.4733,221.16777 -2.42199,0.99846 c -1.29503,0.53382 -1.90794,2.02656 -1.37412,3.3117 l 0.6228,1.50263 c -1.21594,0.8996 -2.27371,1.96725 -3.18319,3.1832 l -1.50263,-0.6228 c -0.6228,-0.25703 -1.3148,-0.25703 -1.93759,0 -0.6228,0.25702 -1.11709,0.75131 -1.37412,1.37411 l -1.00834,2.42199 c -0.53382,1.29503 0.0791,2.77788 1.37411,3.31171 l 2.22429,0.91937 c 0.50417,0.2076 1.06765,-0.0297 1.27525,-0.53383 0.2076,-0.50417 -0.0297,-1.06765 -0.53383,-1.27525 l -2.22428,-0.91937 c -0.29657,-0.11863 -0.43497,-0.46463 -0.31634,-0.7612 l 1.00834,-2.42199 c 0.0593,-0.1384 0.16806,-0.25703 0.31634,-0.31635 0.1384,-0.0593 0.29657,-0.0593 0.44486,0 l 2.22428,0.91937 c 0.43497,0.17795 0.92926,0.0297 1.18628,-0.35588 0.99846,-1.50263 2.26383,-2.768 3.76645,-3.76645 0.38555,-0.25703 0.54372,-0.7612 0.36578,-1.18629 l -0.91937,-2.22428 c -0.11863,-0.29657 0.0198,-0.63268 0.31634,-0.7612 l 2.42199,-0.99845 c 0.1384,-0.0593 0.29657,-0.0593 0.44486,0 0.1384,0.0593 0.25703,0.16805 0.31634,0.31634 l 0.91937,2.22428 c 0.17794,0.43497 0.63269,0.68211 1.09731,0.58326 1.75966,-0.35589 3.55886,-0.346 5.31851,0 0.45474,0.089 0.91937,-0.15817 1.09731,-0.58326 l 0.91937,-2.22428 c 0.11863,-0.29657 0.46463,-0.43497 0.7612,-0.31634 l 2.422,1.00834 c 0.1384,0.0593 0.25702,0.16806 0.31634,0.31634 0.0593,0.1384 0.0593,0.29657 0,0.44486 l -0.91937,2.22428 c -0.17794,0.43497 -0.0297,0.92925 0.35588,1.18628 1.50263,0.99846 2.768,2.26383 3.76645,3.76645 0.25703,0.38555 0.7612,0.54372 1.18629,0.36577 l 2.22428,-0.91937 c 0.14828,-0.0593 0.29657,-0.0593 0.44486,0 0.1384,0.0593 0.25702,0.16806 0.31634,0.31635 l 0.99845,2.42199 c 0.0593,0.1384 0.0593,0.29657 0,0.44486 -0.0593,0.1384 -0.16805,0.25703 -0.31634,0.31634 l -2.22428,0.91937 c -0.43497,0.17794 -0.67223,0.63269 -0.58326,1.09731 0.35589,1.75966 0.346,3.55885 0,5.31851 -0.089,0.45474 0.15817,0.91937 0.58326,1.09731 l 2.22428,0.91937 c 0.29657,0.11863 0.43497,0.46463 0.31634,0.7612 l -1.00834,2.42199 c -0.11863,0.29658 -0.46463,0.43497 -0.7612,0.31635 l -2.22428,-0.91937 c -0.43497,-0.17795 -0.92925,-0.0297 -1.18628,0.35588 -0.99846,1.50263 -2.26383,2.768 -3.76645,3.76645 -0.38554,0.25703 -0.54372,0.7612 -0.36577,1.18629 l 0.91937,2.22428 c 0.0593,0.1384 0.0593,0.29657 0,0.44485 -0.0593,0.1384 -0.16806,0.25703 -0.31635,0.31635 l -2.42199,0.99845 c -0.1384,0.0593 -0.29657,0.0593 -0.44486,0 -0.1384,-0.0593 -0.25703,-0.16806 -0.31634,-0.31634 l -0.91937,-2.22428 c -0.2076,-0.50417 -0.78097,-0.74143 -1.27525,-0.53383 -0.50418,0.2076 -0.74143,0.78097 -0.53383,1.27525 l 0.91937,2.22429 c 0.25703,0.6228 0.75131,1.11708 1.37411,1.37411 0.31634,0.12851 0.64257,0.19771 0.9688,0.19771 0.32623,0 0.66234,-0.0692 0.9688,-0.19771 l 2.42199,-0.99846 c 0.6228,-0.25703 1.11709,-0.75131 1.37411,-1.37411 0.25703,-0.6228 0.25703,-1.3148 0,-1.9376 l -0.6228,-1.50262 c 1.21595,-0.8996 2.27371,-1.96725 3.1832,-3.1832 l 1.50262,0.6228 c 1.29503,0.53383 2.77789,-0.0791 3.31171,-1.37411 l 1.00834,-2.42199 c 0.53383,-1.29503 -0.0791,-2.77788 -1.37411,-3.31171 l -1.50262,-0.6228 c 0.21748,-1.49274 0.21748,-3.00525 0,-4.49799 l 1.50262,-0.6228 c 0.6228,-0.25703 1.11709,-0.75132 1.37411,-1.37411 0.25703,-0.6228 0.25703,-1.3148 0,-1.9376 l -0.99845,-2.422 c -0.25703,-0.6228 -0.75131,-1.11708 -1.37411,-1.37411 -0.6228,-0.25703 -1.3148,-0.25703 -1.9376,0 l -1.50263,0.6228 c -0.89959,-1.21594 -1.96725,-2.2836 -3.1733,-3.18319 l 0.62279,-1.50263 c 0.25703,-0.6228 0.25703,-1.3148 0,-1.9376 -0.25702,-0.62279 -0.75131,-1.11708 -1.37411,-1.37411 l -2.42199,-1.00834 c -1.29503,-0.53383 -2.77788,0.0791 -3.31171,1.37411 l -0.6228,1.50263 c -1.49274,-0.21749 -3.00525,-0.21749 -4.49799,0 l -0.6228,-1.50263 c -0.25703,-0.6228 -0.75131,-1.11708 -1.37411,-1.37411 -0.6228,-0.25703 -1.3148,-0.25703 -1.9376,0 z"
           style="fill:#ffffff;fill-opacity:1;stroke-width:0.09885696" /><path
           inkscape:connector-curvature="0"
           id="path4"
           d="m 258.60985,239.4662 c -0.0297,-4.36948 -3.5984,-7.89868 -7.95799,-7.89868 -0.0198,0 -0.0395,0 -0.0593,0 -2.12543,0.0198 -4.12234,0.86006 -5.61508,2.37257 -1.49274,1.51251 -2.30337,3.51931 -2.29348,5.64473 0,0.53383 0.44486,0.9688 0.97868,0.9688 h 0.01 c 0.54371,0 0.97868,-0.44485 0.9688,-0.98857 -0.01,-1.60148 0.60303,-3.11399 1.72999,-4.26073 1.12697,-1.14674 2.6296,-1.77943 4.23108,-1.78931 0.01,0 0.0297,0 0.0395,0 3.29193,0 5.98084,2.66913 6.00061,5.96107 0.0198,3.31171 -2.64936,6.02039 -5.96107,6.05005 -0.54371,0 -0.97869,0.44485 -0.9688,0.98857 0,0.53382 0.44486,0.9688 0.97868,0.9688 0,0 0,0 0.01,0 4.39913,-0.0297 7.93821,-3.62806 7.90856,-8.0173 z"
           style="fill:#ffffff;fill-opacity:1;stroke-width:0.09885696" /><path
           inkscape:connector-curvature="0"
           id="path6"
           d="m 234.13286,268.975 h 1.90794 c 1.16651,0 2.11554,-0.94903 2.11554,-2.11554 v -0.97868 c 0.94903,-0.25703 1.85851,-0.63269 2.70868,-1.12697 l 0.692,0.692 c 0.39543,0.39542 0.92926,0.6228 1.49274,0.6228 0.56349,0 1.09731,-0.21749 1.49274,-0.6228 l 1.34446,-1.34446 c 0.39542,-0.39543 0.62279,-0.92925 0.62279,-1.49274 0,-0.56348 -0.21748,-1.09731 -0.62279,-1.49274 l -0.692,-0.692 c 0.49428,-0.85017 0.86994,-1.75965 1.12697,-2.70868 h 0.97868 c 1.16651,0 2.11554,-0.94903 2.11554,-2.11554 v -1.90794 c 0,-1.16651 -0.94903,-2.11554 -2.11554,-2.11554 h -0.97868 c -0.25703,-0.94902 -0.63269,-1.85851 -1.12697,-2.70868 l 0.692,-0.692 c 0.39542,-0.39542 0.62279,-0.92925 0.62279,-1.49274 0,-0.56348 -0.21748,-1.09731 -0.62279,-1.49274 l -1.34446,-1.34445 c -0.39543,-0.39543 -0.92925,-0.6228 -1.49274,-0.6228 -0.56348,0 -1.09731,0.21749 -1.49274,0.6228 l -0.692,0.692 c -0.85017,-0.49429 -1.75965,-0.86994 -2.70868,-1.12697 v -0.97869 c 0,-1.16651 -0.94903,-2.11553 -2.11554,-2.11553 h -1.90794 c -1.16651,0 -2.11554,0.94902 -2.11554,2.11553 v 0.97869 c -0.94902,0.25703 -1.85851,0.63268 -2.70868,1.12697 l -0.692,-0.692 c -0.39542,-0.39543 -0.92925,-0.6228 -1.49274,-0.6228 -0.56348,0 -1.09731,0.21749 -1.49274,0.6228 l -1.34445,1.34445 c -0.82051,0.82052 -0.82051,2.16497 0,2.98548 l 0.692,0.692 c -0.49429,0.85017 -0.86994,1.75966 -1.12697,2.70868 h -0.97869 c -1.16651,0 -2.11554,0.94903 -2.11554,2.11554 v 1.90794 c 0,1.16651 0.94903,2.11554 2.11554,2.11554 h 0.97869 c 0.25703,0.94903 0.63268,1.85851 1.12697,2.70868 l -0.692,0.692 c -0.82051,0.82051 -0.82051,2.16497 0,2.98548 l 1.34445,1.34446 c 0.39543,0.39542 0.92926,0.6228 1.49274,0.6228 0.56349,0 1.09732,-0.21749 1.49274,-0.6228 l 0.692,-0.692 c 0.85017,0.49428 1.75966,0.86994 2.70868,1.12697 v 0.97868 c 0.01,1.16651 0.95892,2.11554 2.11554,2.11554 z m -4.4189,-6.26753 c -0.16806,-0.10874 -0.35589,-0.16806 -0.54372,-0.16806 -0.25703,0 -0.50417,0.0989 -0.692,0.28669 l -1.23571,1.23571 c -0.0395,0.0395 -0.0791,0.0494 -0.10874,0.0494 -0.0297,0 -0.0692,-0.01 -0.10874,-0.0494 l -1.34446,-1.34446 c -0.0593,-0.0593 -0.0593,-0.15817 0,-0.21748 l 1.23571,-1.23571 c 0.32623,-0.32623 0.38555,-0.85017 0.11863,-1.23572 -0.71177,-1.05776 -1.19617,-2.23416 -1.44331,-3.47976 -0.089,-0.45474 -0.49428,-0.79086 -0.95891,-0.79086 h -1.74977 c -0.089,0 -0.15817,-0.0692 -0.15817,-0.15817 v -1.90794 c 0,-0.089 0.0692,-0.15817 0.15817,-0.15817 h 1.74977 c 0.46463,0 0.86994,-0.32623 0.95891,-0.79085 0.24714,-1.2456 0.73154,-2.422 1.44331,-3.47977 0.25703,-0.38554 0.2076,-0.90948 -0.11863,-1.23571 l -1.23571,-1.23571 c -0.0593,-0.0593 -0.0593,-0.15817 0,-0.21749 l 1.34446,-1.34445 c 0.0395,-0.0395 0.0791,-0.0494 0.10874,-0.0494 0.0297,0 0.0692,0.01 0.10874,0.0494 l 1.23571,1.25548 c 0.32623,0.32623 0.85017,0.38554 1.23572,0.11863 1.05777,-0.71177 2.23416,-1.19617 3.47976,-1.44331 0.45474,-0.089 0.79086,-0.49429 0.79086,-0.95892 v -1.74976 c 0,-0.089 0.0692,-0.15818 0.15817,-0.15818 h 1.90794 c 0.089,0 0.15817,0.0692 0.15817,0.15818 v 1.74976 c 0,0.46463 0.32623,0.86995 0.79085,0.95892 1.2456,0.24714 2.422,0.73154 3.47977,1.44331 0.38554,0.25703 0.90948,0.2076 1.23571,-0.11863 l 1.23571,-1.23571 c 0.0396,-0.0395 0.0791,-0.0494 0.10875,-0.0494 0.0297,0 0.0692,0.01 0.10874,0.0494 l 1.34445,1.34445 c 0.0395,0.0395 0.0494,0.0791 0.0494,0.10875 0,0.0297 -0.01,0.0692 -0.0494,0.10874 l -1.23571,1.23571 c -0.32623,0.32623 -0.38554,0.85017 -0.11863,1.23571 0.71177,1.05777 1.19617,2.23417 1.44331,3.47977 0.089,0.45474 0.49429,0.79085 0.95892,0.79085 h 1.74977 c 0.089,0 0.15817,0.0692 0.15817,0.15817 v 1.90794 c 0,0.089 -0.0692,0.15817 -0.15817,0.15817 h -1.74977 c -0.46463,0 -0.86994,0.32623 -0.95892,0.79086 -0.24714,1.2456 -0.73154,2.422 -1.44331,3.47977 -0.25702,0.38554 -0.2076,0.90948 0.11863,1.23571 l 1.23571,1.23571 c 0.0395,0.0395 0.0494,0.0791 0.0494,0.10874 0,0.0297 -0.01,0.0692 -0.0494,0.10875 l -1.34445,1.34445 c -0.0395,0.0395 -0.0791,0.0494 -0.10874,0.0494 -0.0297,0 -0.0692,-0.01 -0.10875,-0.0494 l -1.23571,-1.23571 c -0.32623,-0.32623 -0.85017,-0.38554 -1.23571,-0.11863 -1.05777,0.71177 -2.23417,1.19617 -3.47977,1.44331 -0.45474,0.089 -0.79085,0.49429 -0.79085,0.95891 v 1.74977 c 0,0.089 -0.0692,0.15817 -0.15817,0.15817 h -1.90794 c -0.089,0 -0.15817,-0.0692 -0.15817,-0.15817 v -1.74977 c 0,-0.46462 -0.32623,-0.86994 -0.79086,-0.95891 -1.2456,-0.26691 -2.42199,-0.75131 -3.47976,-1.46308 z"
           style="fill:#ffffff;fill-opacity:1;stroke-width:0.09885696" /><path
           inkscape:connector-curvature="0"
           id="path8"
           d="m 240.89468,254.66051 c 0,-3.20296 -2.60983,-5.81279 -5.81279,-5.81279 -3.20297,0 -5.8029,2.60983 -5.8029,5.81279 0,3.20297 2.60982,5.81279 5.81278,5.81279 3.20297,0 5.80291,-2.60982 5.80291,-5.81279 z m -9.65833,0 c 0,-2.12542 1.73,-3.85542 3.85542,-3.85542 2.12543,0 3.85543,1.73 3.85543,3.85542 0,2.12543 -1.73,3.85542 -3.85543,3.85542 -2.12542,0 -3.85542,-1.73988 -3.85542,-3.85542 z"
           style="fill:#ffffff;fill-opacity:1;stroke-width:0.09885696" /></g></g></g><g
     id="g14"
     transform="translate(0,-425.95001)" /><g
     id="g16"
     transform="translate(0,-425.95001)" /><g
     id="g18"
     transform="translate(0,-425.95001)" /><g
     id="g20"
     transform="translate(0,-425.95001)" /><g
     id="g22"
     transform="translate(0,-425.95001)" /><g
     id="g24"
     transform="translate(0,-425.95001)" /><g
     id="g26"
     transform="translate(0,-425.95001)" /><g
     id="g28"
     transform="translate(0,-425.95001)" /><g
     id="g30"
     transform="translate(0,-425.95001)" /><g
     id="g32"
     transform="translate(0,-425.95001)" /><g
     id="g34"
     transform="translate(0,-425.95001)" /><g
     id="g36"
     transform="translate(0,-425.95001)" /><g
     id="g38"
     transform="translate(0,-425.95001)" /><g
     id="g40"
     transform="translate(0,-425.95001)" /><g
     id="g42"
     transform="translate(0,-425.95001)" /></svg>