<?xml version="1.0" encoding="UTF-8" standalone="no"?>
<!-- Generator: Adobe Illustrator 19.0.0, SVG Export Plug-In . SVG Version: 6.00 Build 0)  -->

<svg
   xmlns:dc="http://purl.org/dc/elements/1.1/"
   xmlns:cc="http://creativecommons.org/ns#"
   xmlns:rdf="http://www.w3.org/1999/02/22-rdf-syntax-ns#"
   xmlns:svg="http://www.w3.org/2000/svg"
   xmlns="http://www.w3.org/2000/svg"
   xmlns:sodipodi="http://sodipodi.sourceforge.net/DTD/sodipodi-0.dtd"
   xmlns:inkscape="http://www.inkscape.org/namespaces/inkscape"
   version="1.1"
   id="Layer_1"
   x="0px"
   y="0px"
   viewBox="0 0 192 63.999999"
   xml:space="preserve"
   sodipodi:docname="ncbi_config_button_long.svg"
   inkscape:version="0.92.2 5c3e80d, 2017-08-06"
   width="192"
   height="64"><metadata
     id="metadata49"><rdf:RDF><cc:Work
         rdf:about=""><dc:format>image/svg+xml</dc:format><dc:type
           rdf:resource="http://purl.org/dc/dcmitype/StillImage" /><dc:title></dc:title></cc:Work></rdf:RDF></metadata><defs
     id="defs47" /><sodipodi:namedview
     pagecolor="#ffffff"
     bordercolor="#666666"
     borderopacity="1"
     objecttolerance="10"
     gridtolerance="10"
     guidetolerance="10"
     inkscape:pageopacity="0"
     inkscape:pageshadow="2"
     inkscape:window-width="2246"
     inkscape:window-height="589"
     id="namedview45"
     showgrid="false"
     inkscape:pagecheckerboard="true"
     inkscape:zoom="5.4496072"
     inkscape:cx="63.739044"
     inkscape:cy="28.927024"
     inkscape:window-x="0"
     inkscape:window-y="0"
     inkscape:window-maximized="0"
     inkscape:current-layer="g10" /><g
     id="g12"
     transform="translate(0,-425.95001)"><g
       id="g10"><g
         id="g836"
         transform="matrix(0.96000004,0,0,0.96869936,23.959809,6.9658996)"><path
           inkscape:connector-curvature="0"
           id="path2"
           d="m 24.394789,440.97983 -2.50026,1.03072 c -1.33687,0.55108 -1.96958,2.09205 -1.41851,3.41872 l 0.64293,1.55117 c -1.25523,0.92867 -2.34718,2.03082 -3.28605,3.28605 l -1.55118,-0.64292 c -0.64293,-0.26533 -1.35728,-0.26533 -2.00021,0 -0.64292,0.26533 -1.15318,0.77559 -1.41851,1.41851 l -1.04092,2.50026 c -0.55108,1.33687 0.0816,2.86764 1.41851,3.41872 l 2.29615,0.94907 c 0.52046,0.21431 1.10216,-0.0306 1.31646,-0.55108 0.21431,-0.52046 -0.0306,-1.10215 -0.55107,-1.31646 l -2.29616,-0.94907 c -0.30615,-0.12246 -0.44902,-0.47964 -0.32656,-0.7858 l 1.04092,-2.50025 c 0.0612,-0.14287 0.17349,-0.26534 0.32657,-0.32657 0.14287,-0.0612 0.30615,-0.0612 0.45923,0 l 2.29615,0.94908 c 0.44903,0.18369 0.95928,0.0306 1.22462,-0.36738 1.03071,-1.55118 2.33697,-2.85744 3.88815,-3.88816 0.398,-0.26533 0.56128,-0.78579 0.37759,-1.22461 l -0.94908,-2.29615 c -0.12246,-0.30616 0.0204,-0.65313 0.32656,-0.7858 l 2.50026,-1.03072 c 0.14287,-0.0612 0.30615,-0.0612 0.45923,0 0.14287,0.0612 0.26533,0.17349 0.32656,0.32657 l 0.94908,2.29615 c 0.18369,0.44903 0.65313,0.70416 1.13277,0.6021 1.81651,-0.36738 3.67384,-0.35718 5.49036,0 0.46943,0.0918 0.94907,-0.16328 1.13276,-0.6021 l 0.94908,-2.29615 c 0.12246,-0.30615 0.47964,-0.44903 0.78579,-0.32657 l 2.50026,1.04093 c 0.14287,0.0612 0.26533,0.17348 0.32656,0.32656 0.0612,0.14287 0.0612,0.30616 0,0.45923 l -0.94907,2.29615 c -0.18369,0.44903 -0.0306,0.95929 0.36738,1.22462 1.55118,1.03072 2.85744,2.33697 3.88815,3.88815 0.26534,0.398 0.7858,0.56128 1.22462,0.37759 l 2.29615,-0.94908 c 0.15308,-0.0612 0.30615,-0.0612 0.45923,0 0.14287,0.0612 0.26533,0.17349 0.32657,0.32657 l 1.03071,2.50025 c 0.0612,0.14288 0.0612,0.30616 0,0.45923 -0.0612,0.14288 -0.17348,0.26534 -0.32656,0.32657 l -2.29615,0.94907 c -0.44903,0.1837 -0.69395,0.65313 -0.60211,1.13277 0.36739,1.81651 0.35718,3.67385 0,5.49036 -0.0918,0.46943 0.16329,0.94908 0.60211,1.13277 l 2.29615,0.94907 c 0.30615,0.12247 0.44902,0.47965 0.32656,0.7858 l -1.04092,2.50025 c -0.12246,0.30616 -0.47964,0.44903 -0.78579,0.32657 l -2.29616,-0.94908 c -0.44902,-0.18369 -0.95928,-0.0306 -1.22461,0.36739 -1.03072,1.55117 -2.33697,2.85743 -3.88815,3.88815 -0.398,0.26533 -0.56129,0.78579 -0.37759,1.22461 l 0.94907,2.29616 c 0.0612,0.14287 0.0612,0.30615 0,0.45923 -0.0612,0.14287 -0.17348,0.26533 -0.32656,0.32656 l -2.50026,1.03072 c -0.14287,0.0612 -0.30615,0.0612 -0.45923,0 -0.14287,-0.0612 -0.26533,-0.17349 -0.32656,-0.32657 l -0.94908,-2.29615 c -0.2143,-0.52046 -0.8062,-0.76538 -1.31646,-0.55108 -0.52046,0.21431 -0.76538,0.80621 -0.55107,1.31646 l 0.94907,2.29616 c 0.26534,0.64292 0.77559,1.15318 1.41851,1.41851 0.32657,0.13267 0.66334,0.2041 1.00011,0.2041 0.33677,0 0.68374,-0.0714 1.0001,-0.2041 l 2.50025,-1.03072 c 0.64293,-0.26533 1.15318,-0.77559 1.41852,-1.41851 0.26533,-0.64292 0.26533,-1.35728 0,-2.0002 l -0.64293,-1.55118 c 1.25523,-0.92867 2.34718,-2.03082 3.28605,-3.28605 l 1.55118,0.64292 c 1.33687,0.55108 2.86764,-0.0816 3.41872,-1.41851 l 1.04092,-2.50026 c 0.55108,-1.33687 -0.0816,-2.86764 -1.41851,-3.41871 l -1.55118,-0.64293 c 0.22451,-1.54097 0.22451,-3.10235 0,-4.64333 l 1.55118,-0.64292 c 0.64292,-0.26533 1.15318,-0.77559 1.41851,-1.41851 0.26533,-0.64292 0.26533,-1.35728 0,-2.00021 l -1.03072,-2.50025 c -0.26533,-0.64292 -0.77559,-1.15318 -1.41851,-1.41851 -0.64292,-0.26534 -1.35728,-0.26534 -2.0002,0 l -1.55118,0.64292 c -0.92867,-1.25523 -2.03082,-2.35738 -3.27585,-3.28605 l 0.64293,-1.55118 c 0.26533,-0.64292 0.26533,-1.35728 0,-2.0002 -0.26534,-0.64293 -0.77559,-1.15318 -1.41852,-1.41851 l -2.50025,-1.04093 c -1.33687,-0.55107 -2.86764,0.0816 -3.41872,1.41851 l -0.64292,1.55118 c -1.54097,-0.22451 -3.10236,-0.22451 -4.64333,0 l -0.64292,-1.55118 c -0.26534,-0.64292 -0.77559,-1.15317 -1.41852,-1.41851 -0.64292,-0.26533 -1.35728,-0.26533 -2.0002,0 z"
           style="fill:#ffffff;fill-opacity:1;stroke-width:0.10205123" /><path
           inkscape:connector-curvature="0"
           id="path4"
           d="m 38.988119,459.86952 c -0.0306,-4.51067 -3.71467,-8.1539 -8.21513,-8.1539 -0.0204,0 -0.0408,0 -0.0612,0 -2.1941,0.0204 -4.25554,0.88785 -5.79651,2.44923 -1.54097,1.56139 -2.37779,3.63303 -2.36759,5.82713 0,0.55107 0.45923,1.0001 1.01031,1.0001 h 0.0102 c 0.56128,0 1.0103,-0.45923 1.0001,-1.02051 -0.0102,-1.65323 0.62251,-3.21462 1.78589,-4.39841 1.16339,-1.1838 2.71457,-1.83692 4.3678,-1.84713 0.0102,0 0.0306,0 0.0408,0 3.3983,0 6.1741,2.75538 6.19451,6.15369 0.0204,3.41872 -2.73498,6.21492 -6.15369,6.24554 -0.56128,0 -1.01031,0.45923 -1.0001,1.02051 0,0.55107 0.45923,1.0001 1.0103,1.0001 0,0 0,0 0.0102,0 4.54128,-0.0306 8.19471,-3.74528 8.1641,-8.27635 z"
           style="fill:#ffffff;fill-opacity:1;stroke-width:0.10205123" /><path
           inkscape:connector-curvature="0"
           id="path6"
           d="m 13.720229,490.33181 h 1.96959 c 1.2042,0 2.1839,-0.97969 2.1839,-2.1839 v -1.01031 c 0.97969,-0.26533 1.91856,-0.65312 2.7962,-1.16338 l 0.71436,0.71436 c 0.4082,0.4082 0.95928,0.64292 1.54097,0.64292 0.58169,0 1.13277,-0.22451 1.54098,-0.64292 l 1.38789,-1.3879 c 0.40821,-0.4082 0.64293,-0.95928 0.64293,-1.54097 0,-0.58169 -0.22452,-1.13277 -0.64293,-1.54098 l -0.71436,-0.71435 c 0.51026,-0.87764 0.89805,-1.81652 1.16339,-2.79621 h 1.01031 c 1.2042,0 2.18389,-0.97969 2.18389,-2.18389 v -1.96959 c 0,-1.20421 -0.97969,-2.1839 -2.18389,-2.1839 h -1.01031 c -0.26534,-0.97969 -0.65313,-1.91856 -1.16339,-2.7962 l 0.71436,-0.71436 c 0.40821,-0.40821 0.64293,-0.95928 0.64293,-1.54098 0,-0.58169 -0.22452,-1.13276 -0.64293,-1.54097 l -1.38789,-1.3879 c -0.40821,-0.4082 -0.95929,-0.64292 -1.54098,-0.64292 -0.58169,0 -1.13277,0.22451 -1.54097,0.64292 l -0.71436,0.71436 c -0.87764,-0.51025 -1.81651,-0.89805 -2.7962,-1.16338 v -1.01031 c 0,-1.2042 -0.9797,-2.18389 -2.1839,-2.18389 h -1.96959 c -1.2042,0 -2.18389,0.97969 -2.18389,2.18389 v 1.01031 c -0.9797,0.26533 -1.9185702,0.65313 -2.7962102,1.16338 l -0.71436,-0.71436 c -0.4082,-0.4082 -0.95928,-0.64292 -1.54097,-0.64292 -0.58169,0 -1.13277,0.22451 -1.54097,0.64292 l -1.3879,1.3879 c -0.84703,0.84703 -0.84703,2.23492 0,3.08195 l 0.71436,0.71436 c -0.51026,0.87764 -0.89805,1.81651 -1.16339,2.7962 h -1.0103 c -1.20421003,0 -2.18390003,0.97969 -2.18390003,2.1839 v 1.96959 c 0,1.2042 0.97969,2.18389 2.18390003,2.18389 h 1.0103 c 0.26534,0.97969 0.65313,1.91857 1.16339,2.79621 l -0.71436,0.71435 c -0.84703,0.84703 -0.84703,2.23493 0,3.08195 l 1.3879,1.3879 c 0.4082,0.4082 0.95928,0.64292 1.54097,0.64292 0.58169,0 1.13277,-0.22451 1.54097,-0.64292 l 0.71436,-0.71436 c 0.87764,0.51026 1.8165102,0.89805 2.7962102,1.16338 v 1.01031 c 0.0102,1.20421 0.98989,2.1839 2.18389,2.1839 z m -4.5616902,-6.47005 c -0.17349,-0.11226 -0.36738,-0.17349 -0.56128,-0.17349 -0.26533,0 -0.52046,0.10205 -0.71436,0.29595 l -1.27564,1.27564 c -0.0408,0.0408 -0.0816,0.051 -0.11226,0.051 -0.0306,0 -0.0714,-0.0102 -0.11225,-0.051 l -1.3879,-1.3879 c -0.0612,-0.0612 -0.0612,-0.16328 0,-0.22451 l 1.27564,-1.27564 c 0.33677,-0.33677 0.398,-0.87764 0.12246,-1.27564 -0.73477,-1.09195 -1.23482,-2.30636 -1.48994,-3.5922 -0.0918,-0.46944 -0.51026,-0.81641 -0.9899,-0.81641 h -1.80631 c -0.0918,0 -0.16328,-0.0714 -0.16328,-0.16328 v -1.96959 c 0,-0.0918 0.0714,-0.16328 0.16328,-0.16328 h 1.80631 c 0.47964,0 0.89805,-0.33677 0.9899,-0.81641 0.25512,-1.28585 0.75517,-2.50026 1.48994,-3.59221 0.26534,-0.398 0.21431,-0.93887 -0.12246,-1.27564 l -1.27564,-1.27564 c -0.0612,-0.0612 -0.0612,-0.16328 0,-0.22451 l 1.3879,-1.3879 c 0.0408,-0.0408 0.0816,-0.051 0.11225,-0.051 0.0306,0 0.0714,0.0102 0.11226,0.051 l 1.27564,1.29605 c 0.33677,0.33677 0.87764,0.398 1.27564,0.12246 1.0919502,-0.73476 2.3063602,-1.23482 3.5922002,-1.48994 0.46944,-0.0918 0.81641,-0.51026 0.81641,-0.9899 v -1.80631 c 0,-0.0918 0.0714,-0.16328 0.16329,-0.16328 h 1.96959 c 0.0918,0 0.16328,0.0714 0.16328,0.16328 v 1.80631 c 0,0.47964 0.33677,0.89805 0.81641,0.9899 1.28584,0.25512 2.50025,0.75518 3.5922,1.48994 0.398,0.26534 0.93887,0.21431 1.27564,-0.12246 l 1.27564,-1.27564 c 0.0408,-0.0408 0.0816,-0.051 0.11226,-0.051 0.0306,0 0.0714,0.0102 0.11225,0.051 l 1.3879,1.3879 c 0.0408,0.0408 0.051,0.0816 0.051,0.11226 0,0.0306 -0.0102,0.0714 -0.051,0.11225 l -1.27564,1.27564 c -0.33677,0.33677 -0.398,0.87764 -0.12246,1.27564 0.73477,1.09195 1.23482,2.30636 1.48995,3.59221 0.0918,0.46943 0.51025,0.81641 0.98989,0.81641 h 1.80631 c 0.0918,0 0.16328,0.0714 0.16328,0.16328 v 1.96959 c 0,0.0918 -0.0714,0.16328 -0.16328,0.16328 h -1.80631 c -0.47964,0 -0.89805,0.33677 -0.98989,0.81641 -0.25513,1.28584 -0.75518,2.50025 -1.48995,3.5922 -0.26533,0.398 -0.21431,0.93887 0.12246,1.27564 l 1.27564,1.27564 c 0.0408,0.0408 0.051,0.0816 0.051,0.11226 0,0.0306 -0.0102,0.0714 -0.051,0.11225 l -1.3879,1.3879 c -0.0408,0.0408 -0.0816,0.051 -0.11225,0.051 -0.0306,0 -0.0714,-0.0102 -0.11226,-0.051 l -1.27564,-1.27564 c -0.33677,-0.33677 -0.87764,-0.398 -1.27564,-0.12246 -1.09195,0.73477 -2.30636,1.23482 -3.5922,1.48995 -0.46944,0.0918 -0.81641,0.51025 -0.81641,0.98989 v 1.80631 c 0,0.0919 -0.0714,0.16328 -0.16328,0.16328 h -1.96959 c -0.0919,0 -0.16329,-0.0714 -0.16329,-0.16328 v -1.80631 c 0,-0.47964 -0.33676,-0.89805 -0.81641,-0.98989 -1.28584,-0.27554 -2.50025,-0.77559 -3.5922002,-1.51036 z"
           style="fill:#ffffff;fill-opacity:1;stroke-width:0.10205123" /><path
           inkscape:connector-curvature="0"
           id="path8"
           d="m 20.700539,475.55479 c 0,-3.30646 -2.69416,-6.00061 -6.00062,-6.00061 -3.30646,0 -5.9904002,2.69415 -5.9904002,6.00061 0,3.30646 2.6941502,6.00061 6.0006102,6.00061 3.30646,0 5.99041,-2.69415 5.99041,-6.00061 z m -9.97041,0 c 0,-2.1941 1.7859,-3.98 3.98,-3.98 2.1941,0 3.98,1.7859 3.98,3.98 0,2.1941 -1.7859,3.98 -3.98,3.98 -2.1941,0 -3.98,-1.7961 -3.98,-3.98 z"
           style="fill:#ffffff;fill-opacity:1;stroke-width:0.10205123" /></g><text
         xml:space="preserve"
         style="font-style:normal;font-variant:normal;font-weight:normal;font-stretch:normal;font-size:17.33333397px;line-height:1.25;font-family:sans-serif;-inkscape-font-specification:'sans-serif, Normal';font-variant-ligatures:normal;font-variant-caps:normal;font-variant-numeric:normal;font-feature-settings:normal;text-align:start;letter-spacing:0px;word-spacing:0px;writing-mode:lr-tb;text-anchor:start;fill:#000000;fill-opacity:1;stroke:none;stroke-width:0.44409379"
         x="144.82219"
         y="286.88989"
         id="text840"
         transform="scale(0.61730301,1.61995)"><tspan
           sodipodi:role="line"
           id="tspan838"
           x="144.82219"
           y="286.88989"
           style="font-style:normal;font-variant:normal;font-weight:normal;font-stretch:normal;font-size:13.33333302px;font-family:Candara;-inkscape-font-specification:'Candara, Normal';font-variant-ligatures:normal;font-variant-caps:normal;font-variant-numeric:normal;font-feature-settings:normal;text-align:start;writing-mode:lr-tb;text-anchor:start;fill:#ffffff;fill-opacity:1;stroke-width:0.44409379">CONFIGURATION</tspan></text>
</g></g><g
     id="g14"
     transform="translate(0,-425.95001)" /><g
     id="g16"
     transform="translate(0,-425.95001)" /><g
     id="g18"
     transform="translate(0,-425.95001)" /><g
     id="g20"
     transform="translate(0,-425.95001)" /><g
     id="g22"
     transform="translate(0,-425.95001)" /><g
     id="g24"
     transform="translate(0,-425.95001)" /><g
     id="g26"
     transform="translate(0,-425.95001)" /><g
     id="g28"
     transform="translate(0,-425.95001)" /><g
     id="g30"
     transform="translate(0,-425.95001)" /><g
     id="g32"
     transform="translate(0,-425.95001)" /><g
     id="g34"
     transform="translate(0,-425.95001)" /><g
     id="g36"
     transform="translate(0,-425.95001)" /><g
     id="g38"
     transform="translate(0,-425.95001)" /><g
     id="g40"
     transform="translate(0,-425.95001)" /><g
     id="g42"
     transform="translate(0,-425.95001)" /></svg>