<?xml version="1.0" encoding="UTF-8" standalone="no"?>
<!-- Created with Inkscape (http://www.inkscape.org/) -->

<svg
   xmlns:dc="http://purl.org/dc/elements/1.1/"
   xmlns:cc="http://creativecommons.org/ns#"
   xmlns:rdf="http://www.w3.org/1999/02/22-rdf-syntax-ns#"
   xmlns:svg="http://www.w3.org/2000/svg"
   xmlns="http://www.w3.org/2000/svg"
   xmlns:sodipodi="http://sodipodi.sourceforge.net/DTD/sodipodi-0.dtd"
   xmlns:inkscape="http://www.inkscape.org/namespaces/inkscape"
   width="200"
   height="50"
   viewBox="0 0 52.916666 13.229167"
   version="1.1"
   id="svg843"
   inkscape:version="0.92.2 5c3e80d, 2017-08-06"
   sodipodi:docname="ncbi_logo_long.svg">
  <defs
     id="defs837" />
  <sodipodi:namedview
     id="base"
     pagecolor="#ffffff"
     bordercolor="#666666"
     borderopacity="1.0"
     inkscape:pageopacity="0.0"
     inkscape:pageshadow="2"
     inkscape:zoom="2.56"
     inkscape:cx="-149.11233"
     inkscape:cy="75.115307"
     inkscape:document-units="px"
     inkscape:current-layer="g1452"
     showgrid="false"
     inkscape:pagecheckerboard="true"
     units="px"
     inkscape:window-width="2560"
     inkscape:window-height="1315"
     inkscape:window-x="0"
     inkscape:window-y="1"
     inkscape:window-maximized="1" />
  <metadata
     id="metadata840">
    <rdf:RDF>
      <cc:Work
         rdf:about="">
        <dc:format>image/svg+xml</dc:format>
        <dc:type
           rdf:resource="http://purl.org/dc/dcmitype/StillImage" />
        <dc:title></dc:title>
      </cc:Work>
    </rdf:RDF>
  </metadata>
  <g
     inkscape:label="Layer 1"
     inkscape:groupmode="layer"
     id="layer1"
     transform="translate(0,-283.77082)">
    <g
       id="g1452"
       transform="matrix(0.23298939,0,0,0.26458333,-13854.65,-5628.0797)">
      <g
         id="g1461"
         transform="translate(9.9330179)">
        <path
           inkscape:connector-curvature="0"
           id="path4788"
           d="m 59507.118,22393.747 c -0.05,-0.385 -0.04,-5.943 0.01,-5.943 0.191,0 6.935,-0.707 7.509,-0.788 2.292,-0.32 4.493,-0.845 5.97,-1.424 2.658,-1.042 3.833,-2.318 3.494,-3.795 -0.129,-0.567 -0.826,-1.597 -1.622,-2.4 -1.217,-1.228 -3.616,-2.935 -5.804,-4.132 -0.363,-0.198 -0.652,-0.37 -0.643,-0.381 0.02,-0.02 0.862,0.338 1.379,0.586 0.555,0.266 0.354,0.1 -0.395,-0.332 -0.641,-0.367 -2.07,-1.124 -2.364,-1.252 -0.08,-0.03 -0.146,-0.183 -0.08,-0.183 0.07,0 6.311,2.841 6.807,3.098 0.34,0.176 1.018,0.561 1.507,0.855 3.02,1.819 4.834,3.761 5.24,5.608 0.16,0.73 0.05,1.949 -0.234,2.638 -1.236,2.976 -6.572,5.487 -15.392,7.244 -1.745,0.348 -4.837,0.854 -5.228,0.856 -0.1,0 -0.127,-0.05 -0.154,-0.255 z m -9.045,-8.949 c -0.83,-0.374 -1.519,-0.668 -1.532,-0.653 -0.01,0.01 0.381,0.253 0.874,0.529 0.493,0.277 0.889,0.512 0.879,0.524 -0.02,0.02 -0.586,-0.23 -3.403,-1.505 -1.823,-0.825 -1.975,-0.901 -3.079,-1.546 -2.873,-1.681 -4.67,-3.394 -5.391,-5.14 -0.198,-0.48 -0.35,-1.271 -0.35,-1.82 0,-2.332 2.088,-4.349 6.294,-6.081 2.937,-1.21 6.937,-2.268 11.571,-3.061 2.038,-0.349 3.103,-0.483 6.853,-0.861 1.869,-0.189 3.791,-0.403 4.27,-0.477 5.051,-0.779 8.28,-2.195 8.964,-3.932 0.128,-0.325 0.166,-0.858 0.08,-1.219 -0.252,-1.137 -1.899,-2.931 -4.162,-4.534 -0.708,-0.501 -2.449,-1.583 -3.271,-2.033 -0.363,-0.198 -0.651,-0.371 -0.639,-0.385 0.01,-0.01 0.358,0.128 0.77,0.315 0.413,0.186 0.758,0.33 0.766,0.32 0.03,-0.03 -1.507,-0.894 -2.273,-1.273 -0.409,-0.203 -0.744,-0.406 -0.744,-0.452 0,-0.06 0.04,-0.07 0.153,-0.01 0.08,0.04 1.418,0.639 2.963,1.333 3.778,1.696 4.79,2.219 6.292,3.255 2.398,1.654 3.753,3.244 4.151,4.868 0.121,0.498 0.114,1.351 -0.02,1.966 -0.743,3.47 -6.484,6.257 -16.857,8.183 -2.347,0.436 -4.505,0.709 -8.95,1.132 -6.176,0.589 -10.259,1.865 -11.66,3.646 -0.397,0.505 -0.535,0.876 -0.496,1.333 0.149,1.757 2.324,3.965 6.247,6.344 0.877,0.532 2.542,1.445 3.075,1.686 0.248,0.112 0.359,0.244 0.197,0.234 -0.04,0 -0.749,-0.31 -1.579,-0.685 z m 0.161,-21.481 c -0.773,-0.349 -1.468,-0.657 -1.545,-0.684 -0.308,-0.108 0,0.105 0.8,0.55 0.455,0.254 0.821,0.47 0.812,0.48 -0.01,0.02 -0.527,-0.207 -3.213,-1.413 -2.105,-0.945 -3.342,-1.61 -4.663,-2.507 -1.951,-1.324 -3.287,-2.706 -3.895,-4.024 -0.38,-0.824 -0.552,-2.024 -0.403,-2.801 0.09,-0.492 0.396,-1.181 0.719,-1.643 1.94,-2.777 7.879,-5.168 16.696,-6.722 0.962,-0.17 3.463,-0.551 3.613,-0.551 0.05,0 0.03,6.101 -0.03,6.165 -0.04,0.05 -1.4,0.203 -3.53,0.406 -1.847,0.176 -4.076,0.433 -4.775,0.549 -3.797,0.632 -6.486,1.608 -7.836,2.844 -0.48,0.439 -0.816,0.999 -0.856,1.429 -0.155,1.676 2.134,4.115 6.147,6.547 1.083,0.657 1.819,1.068 2.769,1.548 0.354,0.179 0.654,0.358 0.664,0.398 0.01,0.04 0,0.07 -0.03,0.07 -0.03,0 -0.679,-0.291 -1.451,-0.639 z"
           style="fill:#ffffff;fill-opacity:1;stroke-width:0.06186153" />
        <text
           transform="scale(0.977647,1.0228641)"
           id="text1456"
           y="21885.914"
           x="60907.613"
           style="font-style:normal;font-weight:normal;font-size:53.62180328px;line-height:1.25;font-family:sans-serif;letter-spacing:0px;word-spacing:0px;fill:#ffffff;fill-opacity:1;stroke:none;stroke-width:1.34054494"
           xml:space="preserve"><tspan
             style="font-style:normal;font-variant:normal;font-weight:normal;font-stretch:normal;font-size:53.62180328px;font-family:Candara;-inkscape-font-specification:'Candara, Normal';font-variant-ligatures:normal;font-variant-caps:normal;font-variant-numeric:normal;font-feature-settings:normal;text-align:start;writing-mode:lr-tb;text-anchor:start;fill:#ffffff;fill-opacity:1;stroke-width:1.34054494"
             y="21885.914"
             x="60907.613"
             id="tspan1454"
             sodipodi:role="line">NCBI</tspan></text>
      </g>
    </g>
  </g>
</svg>
