<?xml version="1.0" encoding="UTF-8" standalone="no"?>
<!-- Generator: Adobe Illustrator 19.0.0, SVG Export Plug-In . SVG Version: 6.00 Build 0)  -->

<svg
   xmlns:dc="http://purl.org/dc/elements/1.1/"
   xmlns:cc="http://creativecommons.org/ns#"
   xmlns:rdf="http://www.w3.org/1999/02/22-rdf-syntax-ns#"
   xmlns:svg="http://www.w3.org/2000/svg"
   xmlns="http://www.w3.org/2000/svg"
   xmlns:sodipodi="http://sodipodi.sourceforge.net/DTD/sodipodi-0.dtd"
   xmlns:inkscape="http://www.inkscape.org/namespaces/inkscape"
   version="1.1"
   id="Capa_1"
   x="0px"
   y="0px"
   viewBox="0 0 489.2 489.2"
   style="enable-background:new 0 0 489.2 489.2;"
   xml:space="preserve"
   width="512px"
   height="512px"
   sodipodi:docname="ncbi_expand_toolbar_button.svg"
   inkscape:version="0.92.2 5c3e80d, 2017-08-06"><metadata
     id="metadata45"><rdf:RDF><cc:Work
         rdf:about=""><dc:format>image/svg+xml</dc:format><dc:type
           rdf:resource="http://purl.org/dc/dcmitype/StillImage" /><dc:title></dc:title></cc:Work></rdf:RDF></metadata><defs
     id="defs43" /><sodipodi:namedview
     pagecolor="#ffffff"
     bordercolor="#666666"
     borderopacity="1"
     objecttolerance="10"
     gridtolerance="10"
     guidetolerance="10"
     inkscape:pageopacity="0"
     inkscape:pageshadow="2"
     inkscape:window-width="1467"
     inkscape:window-height="865"
     id="namedview41"
     showgrid="false"
     inkscape:pagecheckerboard="true"
     inkscape:zoom="0.4609375"
     inkscape:cx="256"
     inkscape:cy="256"
     inkscape:window-x="753"
     inkscape:window-y="155"
     inkscape:window-maximized="0"
     inkscape:current-layer="Capa_1" /><g
     id="g8"><g
       id="g6"><path
         d="M481.044,382.5c0-6.8-5.5-12.3-12.3-12.3h-418.7l73.6-73.6c4.8-4.8,4.8-12.5,0-17.3c-4.8-4.8-12.5-4.8-17.3,0l-94.5,94.5    c-4.8,4.8-4.8,12.5,0,17.3l94.5,94.5c2.4,2.4,5.5,3.6,8.7,3.6s6.3-1.2,8.7-3.6c4.8-4.8,4.8-12.5,0-17.3l-73.6-73.6h418.8    C475.544,394.7,481.044,389.3,481.044,382.5z"
         fill="#FFFFFF"
         id="path2" /><path
         d="M477.444,98l-94.5-94.4c-4.8-4.8-12.5-4.8-17.3,0s-4.8,12.5,0,17.3l73.6,73.6h-418.8c-6.8,0-12.3,5.5-12.3,12.3    s5.5,12.3,12.3,12.3h418.8l-73.6,73.4c-4.8,4.8-4.8,12.5,0,17.3c2.4,2.4,5.5,3.6,8.7,3.6s6.3-1.2,8.7-3.6l94.5-94.5    C482.244,110.6,482.244,102.8,477.444,98z"
         fill="#FFFFFF"
         id="path4" /></g></g><g
     id="g10" /><g
     id="g12" /><g
     id="g14" /><g
     id="g16" /><g
     id="g18" /><g
     id="g20" /><g
     id="g22" /><g
     id="g24" /><g
     id="g26" /><g
     id="g28" /><g
     id="g30" /><g
     id="g32" /><g
     id="g34" /><g
     id="g36" /><g
     id="g38" /></svg>