<?xml version="1.0" encoding="UTF-8" standalone="no"?>
<!-- Created with Inkscape (http://www.inkscape.org/) -->

<svg
   xmlns:dc="http://purl.org/dc/elements/1.1/"
   xmlns:cc="http://creativecommons.org/ns#"
   xmlns:rdf="http://www.w3.org/1999/02/22-rdf-syntax-ns#"
   xmlns:svg="http://www.w3.org/2000/svg"
   xmlns="http://www.w3.org/2000/svg"
   xmlns:sodipodi="http://sodipodi.sourceforge.net/DTD/sodipodi-0.dtd"
   xmlns:inkscape="http://www.inkscape.org/namespaces/inkscape"
   width="32"
   height="32"
   viewBox="0 0 8.4666665 8.4666669"
   version="1.1"
   id="svg913"
   inkscape:version="0.92.2 5c3e80d, 2017-08-06"
   sodipodi:docname="ncbi_helix_vertical_white.svg">
  <defs
     id="defs907" />
  <sodipodi:namedview
     id="base"
     pagecolor="#ffffff"
     bordercolor="#666666"
     borderopacity="1.0"
     inkscape:pageopacity="0.0"
     inkscape:pageshadow="2"
     inkscape:zoom="10.24"
     inkscape:cx="-12.217973"
     inkscape:cy="17.733024"
     inkscape:document-units="px"
     inkscape:current-layer="g1539"
     showgrid="false"
     units="px"
     inkscape:pagecheckerboard="true"
     inkscape:window-width="2560"
     inkscape:window-height="1315"
     inkscape:window-x="0"
     inkscape:window-y="1"
     inkscape:window-maximized="1" />
  <metadata
     id="metadata910">
    <rdf:RDF>
      <cc:Work
         rdf:about="">
        <dc:format>image/svg+xml</dc:format>
        <dc:type
           rdf:resource="http://purl.org/dc/dcmitype/StillImage" />
        <dc:title></dc:title>
      </cc:Work>
    </rdf:RDF>
  </metadata>
  <g
     inkscape:label="Layer 1"
     inkscape:groupmode="layer"
     id="layer1"
     transform="translate(0,-288.53333)">
    <g
       id="g1539"
       transform="matrix(0.13425831,0,0,0.1392898,-14219.989,-5687.0108)">
      <path
         style="fill:#ffffff;fill-opacity:1;stroke-width:0.04700121"
         d="m 105946.61,42937.97 c 0,-0.292 0,-4.517 0,-4.517 0.16,0 5.28,-0.536 5.72,-0.599 1.74,-0.243 3.4,-0.643 4.53,-1.081 2.03,-0.792 2.91,-1.761 2.66,-2.884 -0.13,-0.43 -0.63,-1.212 -1.23,-1.823 -0.93,-0.934 -2.75,-2.231 -4.41,-3.139 -0.28,-0.152 -0.5,-0.282 -0.49,-0.29 0,-0.01 0.66,0.257 1.04,0.446 0.42,0.201 0.28,0.08 -0.29,-0.252 -0.49,-0.28 -1.58,-0.857 -1.8,-0.953 -0.12,-0.02 -0.12,-0.139 -0.12,-0.139 0,0 4.8,2.16 5.18,2.355 0.24,0.132 0.77,0.425 1.12,0.65 2.31,1.381 3.69,2.857 3.99,4.262 0.12,0.552 0,1.479 -0.17,2.002 -0.95,2.261 -5,4.168 -11.7,5.503 -1.31,0.266 -3.68,0.65 -3.97,0.652 -0.12,0 -0.12,-0.03 -0.12,-0.193 z m -6.85,-6.8 c -0.65,-0.285 -1.16,-0.508 -1.17,-0.497 0,0 0.28,0.192 0.65,0.403 0.39,0.21 0.68,0.389 0.68,0.398 0,0.01 -0.45,-0.176 -2.59,-1.145 -1.39,-0.626 -1.5,-0.684 -2.34,-1.174 -2.18,-1.276 -3.55,-2.58 -4.09,-3.905 -0.15,-0.363 -0.27,-0.966 -0.27,-1.383 0,-1.772 1.58,-3.305 4.78,-4.62 2.24,-0.92 5.28,-1.723 8.79,-2.325 1.55,-0.267 2.37,-0.367 5.2,-0.655 1.42,-0.142 2.9,-0.306 3.25,-0.363 3.84,-0.591 6.3,-1.668 6.81,-2.986 0.12,-0.248 0.12,-0.652 0.12,-0.927 -0.17,-0.863 -1.42,-2.227 -3.15,-3.444 -0.54,-0.382 -1.87,-1.203 -2.49,-1.544 -0.27,-0.152 -0.48,-0.283 -0.47,-0.294 0,0 0.25,0.1 0.58,0.239 0.31,0.142 0.57,0.253 0.58,0.244 0,-0.02 -1.15,-0.679 -1.74,-0.968 -0.29,-0.154 -0.56,-0.307 -0.56,-0.343 0,-0.06 0,-0.06 0.12,0 0.12,0.03 1.08,0.487 2.26,1.015 2.87,1.288 3.63,1.685 4.76,2.472 1.83,1.256 2.86,2.464 3.15,3.699 0.15,0.378 0.15,1.027 0,1.494 -0.55,2.637 -4.92,4.754 -12.8,6.218 -1.78,0.33 -3.41,0.538 -6.79,0.858 -4.7,0.448 -7.8,1.418 -8.86,2.771 -0.29,0.384 -0.42,0.666 -0.37,1.013 0.12,1.335 1.76,3.012 4.73,4.82 0.67,0.403 1.94,1.097 2.34,1.281 0.2,0.09 0.27,0.185 0.15,0.177 0,0 -0.56,-0.235 -1.2,-0.519 z m 0.12,-16.321 c -0.59,-0.265 -1.11,-0.5 -1.17,-0.52 -0.23,-0.09 0,0.08 0.6,0.418 0.35,0.192 0.63,0.356 0.62,0.365 0,0.01 -0.39,-0.158 -2.44,-1.075 -1.59,-0.717 -2.53,-1.222 -3.53,-1.903 -1.5,-1.006 -2.51,-2.057 -2.96,-3.059 -0.28,-0.624 -0.44,-1.537 -0.32,-2.128 0.13,-0.374 0.31,-0.897 0.55,-1.249 1.49,-2.108 5.98,-3.925 12.68,-5.106 0.74,-0.129 2.65,-0.419 2.75,-0.419 0,0 0,4.636 0,4.685 0,0.03 -1.05,0.154 -2.68,0.309 -1.4,0.133 -3.1,0.327 -3.63,0.415 -2.88,0.482 -4.93,1.223 -5.96,2.161 -0.36,0.335 -0.6,0.759 -0.65,1.087 -0.12,1.274 1.62,3.126 4.67,4.974 0.83,0.499 1.38,0.812 2.11,1.176 0.28,0.135 0.5,0.272 0.51,0.302 0,0.03 0,0.05 0,0.05 0,0 -0.52,-0.222 -1.1,-0.486 z"
         id="path4788"
         inkscape:connector-curvature="0" />
      <path
         inkscape:connector-curvature="0"
         id="path905"
         d="m 909.34249,953.3948 c 0,-31.53334 0.4929,-57.33334 1.0953,-57.33334 4.5362,0 164.60751,-13.83876 178.23791,-15.40933 123.9053,-14.27707 206.4031,-43.21619 222.642,-78.09984 6.0241,-12.9406 3.955,-28.29839 -5.8582,-43.48123 -19.2716,-29.81701 -67.1208,-64.53846 -137.2472,-99.59265 -24.1768,-12.08528 -55.0497,-26.21859 -70.4828,-32.26637 -9.3352,-3.65819 -12.0449,-5.27055 -10.8558,-6.45962 0.8407,-0.84074 141.3792,51.22756 161.802,59.94626 22.3525,9.54249 54.9749,26.08113 74.0067,37.51925 103.0968,61.96145 116.1597,125.44768 36.66,178.16905 -63.1324,41.8672 -192.4421,78.72404 -363.33318,103.56012 -22.605,3.2852 -82.18433,10.7811 -85.69163,10.7811 -0.5363,0 -0.9751,-25.80007 -0.9751,-57.3334 z M 658.67579,823.54036 c -81.3676,-30.27451 -91.6448,-34.51612 -126.6666,-52.27791 -64.573,-32.74908 -104.8227,-67.11953 -117.4077,-100.25797 -4.4182,-11.63395 -5.0099,-28.22866 -1.4271,-40.02418 13.4508,-44.28396 78.9211,-83.14925 194.6872,-115.57277 62.5423,-17.51672 140.2013,-33.00372 226.8142,-45.23201 48.383,-6.83088 73.6516,-9.44856 162.66663,-16.85131 44.36668,-3.68965 89.96668,-7.89111 101.33328,-9.33655 111.3875,-14.16462 184.7008,-38.75488 208.1862,-69.82834 28.5865,-37.82274 -21.2137,-91.43024 -140.1862,-150.90387 -24.6364,-12.31563 -55.9261,-26.56337 -71.6666,-32.63347 -4.5834,-1.76748 -8.3334,-3.95181 -8.3334,-4.85406 0,-1.24206 0.8905,-1.29848 3.6667,-0.23234 2.0167,0.77446 33.6667,12.51542 70.3333,26.091 89.6652,33.19794 113.6905,43.44986 149.3334,63.72263 89.7826,51.06608 119.5784,100.69165 89.1412,148.46655 -31.8071,49.92513 -145.8632,95.24321 -319.2625,126.85306 -82.12378,14.97078 -137.64681,21.93838 -249.78571,31.34567 -48.3489,4.05597 -97.5489,8.60721 -109.3333,10.11387 -81.1923,10.38056 -145.5959,27.47026 -180.9494,48.01553 -5.3956,3.13563 -14.0618,9.94984 -19.2581,15.14269 -10.5755,10.56846 -13.8855,17.63132 -13.8855,29.62906 0,34.90154 52.2091,79.90346 148.6667,128.14398 20.8302,10.41762 60.3436,28.28082 73,33.00175 5.8886,2.19648 8.4988,4.76461 4.6667,4.59144 -0.9167,-0.0415 -34.3667,-12.24203 -74.3334,-27.11245 z m 2.6667,-420.89323 c -80.4218,-29.93484 -91.5501,-34.45669 -123.0411,-49.99608 -127.437,-62.88437 -161.228,-130.30032 -93.6255,-186.7904 57.1467,-47.75295 191.7564,-88.896659 380.6666,-116.351476 22.605,-3.285243 82.1842,-10.781032 85.6915,-10.781032 0.5363,0 0.9752,25.8 0.9752,57.333333 0,31.533335 -0.4929,57.333335 -1.0954,57.333335 -4.5362,0 -164.6076,13.83875 -178.238,15.40932 -105.5321,12.16 -181.9984,35.09444 -211.4943,63.43317 -22.3667,21.48928 -19.2452,46.05271 9.7285,76.55514 32.3622,34.06966 103.5673,76.3111 187.734,111.37066 8.4158,3.5056 15.5158,7.01684 15.7777,7.80276 0.262,0.78591 -0.024,1.38488 -0.6348,1.33106 -0.6111,-0.0538 -33.2111,-12.04624 -72.4444,-26.64979 z"
         style="fill:#000000;stroke-width:1.33333337" />
      <text
         xml:space="preserve"
         style="font-style:normal;font-weight:normal;font-size:29.4062748px;line-height:1.25;font-family:sans-serif;letter-spacing:0px;word-spacing:0px;fill:#ffffff;fill-opacity:1;stroke:none;stroke-width:0.73515689"
         x="94737.773"
         y="48028.086"
         id="text1543"
         transform="scale(1.1179553,0.89449011)"><tspan
           sodipodi:role="line"
           id="tspan1541"
           x="94737.773"
           y="48028.086"
           style="font-style:normal;font-variant:normal;font-weight:normal;font-stretch:normal;font-size:29.40625381px;font-family:Candara;-inkscape-font-specification:'Candara, Normal';font-variant-ligatures:normal;font-variant-caps:normal;font-variant-numeric:normal;font-feature-settings:normal;text-align:start;writing-mode:lr-tb;text-anchor:start;fill:#ffffff;fill-opacity:1;stroke-width:0.73515689">NCBI</tspan></text>
    </g>
  </g>
</svg>
