<?xml version="1.0" encoding="UTF-8" standalone="no"?>
<!-- Created with Inkscape (http://www.inkscape.org/) -->

<svg
   xmlns:dc="http://purl.org/dc/elements/1.1/"
   xmlns:cc="http://creativecommons.org/ns#"
   xmlns:rdf="http://www.w3.org/1999/02/22-rdf-syntax-ns#"
   xmlns:svg="http://www.w3.org/2000/svg"
   xmlns="http://www.w3.org/2000/svg"
   xmlns:sodipodi="http://sodipodi.sourceforge.net/DTD/sodipodi-0.dtd"
   xmlns:inkscape="http://www.inkscape.org/namespaces/inkscape"
   width="96"
   height="72"
   viewBox="0 0 25.399999 19.050001"
   version="1.1"
   id="svg913"
   inkscape:version="0.92.2 5c3e80d, 2017-08-06"
   sodipodi:docname="ncbi_helix_vertical_white.svg">
  <defs
     id="defs907" />
  <sodipodi:namedview
     id="base"
     pagecolor="#ffffff"
     bordercolor="#666666"
     borderopacity="1.0"
     inkscape:pageopacity="0.0"
     inkscape:pageshadow="2"
     inkscape:zoom="10.24"
     inkscape:cx="20.496871"
     inkscape:cy="17.733024"
     inkscape:document-units="px"
     inkscape:current-layer="g1539"
     showgrid="false"
     units="px"
     inkscape:pagecheckerboard="true"
     inkscape:window-width="2560"
     inkscape:window-height="1315"
     inkscape:window-x="0"
     inkscape:window-y="1"
     inkscape:window-maximized="1" />
  <metadata
     id="metadata910">
    <rdf:RDF>
      <cc:Work
         rdf:about="">
        <dc:format>image/svg+xml</dc:format>
        <dc:type
           rdf:resource="http://purl.org/dc/dcmitype/StillImage" />
        <dc:title></dc:title>
      </cc:Work>
    </rdf:RDF>
  </metadata>
  <g
     inkscape:label="Layer 1"
     inkscape:groupmode="layer"
     id="layer1"
     transform="translate(0,-277.95)">
    <g
       id="g1539"
       transform="matrix(0.13425831,0,0,0.1392898,-14219.989,-5687.0108)">
      <path
         inkscape:connector-curvature="0"
         id="path905"
         d="m 909.34249,953.3948 c 0,-31.53334 0.4929,-57.33334 1.0953,-57.33334 4.5362,0 164.60751,-13.83876 178.23791,-15.40933 123.9053,-14.27707 206.4031,-43.21619 222.642,-78.09984 6.0241,-12.9406 3.955,-28.29839 -5.8582,-43.48123 -19.2716,-29.81701 -67.1208,-64.53846 -137.2472,-99.59265 -24.1768,-12.08528 -55.0497,-26.21859 -70.4828,-32.26637 -9.3352,-3.65819 -12.0449,-5.27055 -10.8558,-6.45962 0.8407,-0.84074 141.3792,51.22756 161.802,59.94626 22.3525,9.54249 54.9749,26.08113 74.0067,37.51925 103.0968,61.96145 116.1597,125.44768 36.66,178.16905 -63.1324,41.8672 -192.4421,78.72404 -363.33318,103.56012 -22.605,3.2852 -82.18433,10.7811 -85.69163,10.7811 -0.5363,0 -0.9751,-25.80007 -0.9751,-57.3334 z M 658.67579,823.54036 c -81.3676,-30.27451 -91.6448,-34.51612 -126.6666,-52.27791 -64.573,-32.74908 -104.8227,-67.11953 -117.4077,-100.25797 -4.4182,-11.63395 -5.0099,-28.22866 -1.4271,-40.02418 13.4508,-44.28396 78.9211,-83.14925 194.6872,-115.57277 62.5423,-17.51672 140.2013,-33.00372 226.8142,-45.23201 48.383,-6.83088 73.6516,-9.44856 162.66663,-16.85131 44.36668,-3.68965 89.96668,-7.89111 101.33328,-9.33655 111.3875,-14.16462 184.7008,-38.75488 208.1862,-69.82834 28.5865,-37.82274 -21.2137,-91.43024 -140.1862,-150.90387 -24.6364,-12.31563 -55.9261,-26.56337 -71.6666,-32.63347 -4.5834,-1.76748 -8.3334,-3.95181 -8.3334,-4.85406 0,-1.24206 0.8905,-1.29848 3.6667,-0.23234 2.0167,0.77446 33.6667,12.51542 70.3333,26.091 89.6652,33.19794 113.6905,43.44986 149.3334,63.72263 89.7826,51.06608 119.5784,100.69165 89.1412,148.46655 -31.8071,49.92513 -145.8632,95.24321 -319.2625,126.85306 -82.12378,14.97078 -137.64681,21.93838 -249.78571,31.34567 -48.3489,4.05597 -97.5489,8.60721 -109.3333,10.11387 -81.1923,10.38056 -145.5959,27.47026 -180.9494,48.01553 -5.3956,3.13563 -14.0618,9.94984 -19.2581,15.14269 -10.5755,10.56846 -13.8855,17.63132 -13.8855,29.62906 0,34.90154 52.2091,79.90346 148.6667,128.14398 20.8302,10.41762 60.3436,28.28082 73,33.00175 5.8886,2.19648 8.4988,4.76461 4.6667,4.59144 -0.9167,-0.0415 -34.3667,-12.24203 -74.3334,-27.11245 z m 2.6667,-420.89323 c -80.4218,-29.93484 -91.5501,-34.45669 -123.0411,-49.99608 -127.437,-62.88437 -161.228,-130.30032 -93.6255,-186.7904 57.1467,-47.75295 191.7564,-88.896659 380.6666,-116.351476 22.605,-3.285243 82.1842,-10.781032 85.6915,-10.781032 0.5363,0 0.9752,25.8 0.9752,57.333333 0,31.533335 -0.4929,57.333335 -1.0954,57.333335 -4.5362,0 -164.6076,13.83875 -178.238,15.40932 -105.5321,12.16 -181.9984,35.09444 -211.4943,63.43317 -22.3667,21.48928 -19.2452,46.05271 9.7285,76.55514 32.3622,34.06966 103.5673,76.3111 187.734,111.37066 8.4158,3.5056 15.5158,7.01684 15.7777,7.80276 0.262,0.78591 -0.024,1.38488 -0.6348,1.33106 -0.6111,-0.0538 -33.2111,-12.04624 -72.4444,-26.64979 z"
         style="fill:#000000;stroke-width:1.33333337" />
      <g
         id="g820"
         transform="translate(0,-0.25604013)">
        <path
           inkscape:connector-curvature="0"
           id="path4788"
           d="m 106009.6,42907.505 c 0,-0.584 0,-9.028 0,-9.028 0.32,0 10.55,-1.072 11.43,-1.197 3.48,-0.486 6.8,-1.286 9.06,-2.161 4.06,-1.583 5.82,-3.52 5.32,-5.765 -0.26,-0.859 -1.26,-2.423 -2.46,-3.643 -1.86,-1.868 -5.5,-4.46 -8.81,-6.275 -0.56,-0.304 -1.01,-0.563 -0.99,-0.579 0,-0.02 1.32,0.514 2.08,0.891 0.84,0.402 0.56,0.16 -0.58,-0.504 -0.98,-0.559 -3.15,-1.713 -3.6,-1.905 -0.24,-0.04 -0.24,-0.277 -0.24,-0.277 0,0 9.6,4.317 10.36,4.707 0.48,0.264 1.54,0.85 2.24,1.299 4.61,2.76 7.37,5.71 7.97,8.519 0.24,1.103 0,2.956 -0.34,4.001 -1.9,4.519 -9.99,8.332 -23.38,10.999 -2.63,0.533 -7.35,1.3 -7.94,1.304 -0.24,0 -0.24,-0.06 -0.24,-0.386 z m -13.69,-13.591 c -1.3,-0.57 -2.32,-1.016 -2.34,-0.994 0,0 0.56,0.384 1.3,0.806 0.78,0.42 1.36,0.777 1.36,0.795 0,0.02 -0.9,-0.351 -5.18,-2.288 -2.77,-1.252 -2.99,-1.367 -4.67,-2.347 -4.36,-2.55 -7.1,-5.157 -8.18,-7.805 -0.29,-0.726 -0.53,-1.931 -0.53,-2.765 0,-3.541 3.15,-6.606 9.54,-9.233 4.48,-1.84 10.56,-3.445 17.58,-4.648 3.09,-0.534 4.73,-0.734 10.39,-1.309 2.84,-0.284 5.79,-0.611 6.49,-0.726 7.68,-1.181 12.6,-3.333 13.61,-5.968 0.24,-0.496 0.24,-1.303 0.24,-1.853 -0.33,-1.725 -2.83,-4.451 -6.29,-6.884 -1.08,-0.763 -3.73,-2.404 -4.98,-3.086 -0.54,-0.303 -0.96,-0.565 -0.94,-0.588 0,0 0.51,0.2 1.16,0.479 0.63,0.283 1.14,0.505 1.16,0.487 0,-0.04 -2.29,-1.357 -3.48,-1.934 -0.57,-0.309 -1.12,-0.615 -1.12,-0.687 0,-0.12 0,-0.12 0.24,0 0.24,0.06 2.16,0.974 4.52,2.03 5.74,2.574 7.26,3.368 9.52,4.94 3.65,2.511 5.71,4.925 6.29,7.394 0.3,0.755 0.3,2.052 0,2.986 -1.1,5.271 -9.83,9.502 -25.58,12.428 -3.56,0.659 -6.82,1.075 -13.57,1.715 -9.4,0.896 -15.59,2.834 -17.71,5.539 -0.59,0.767 -0.84,1.331 -0.75,2.025 0.24,2.667 3.52,6.019 9.46,9.634 1.34,0.805 3.88,2.193 4.68,2.56 0.4,0.18 0.54,0.369 0.3,0.353 0,0 -1.12,-0.469 -2.4,-1.037 z m 0.24,-32.622 c -1.18,-0.53 -2.22,-1 -2.34,-1.04 -0.46,-0.18 0,0.16 1.2,0.836 0.7,0.383 1.26,0.711 1.24,0.729 0,0.02 -0.78,-0.316 -4.88,-2.149 -3.17,-1.432 -5.06,-2.442 -7.06,-3.803 -2.99,-2.011 -5.01,-4.111 -5.91,-6.115 -0.56,-1.247 -0.88,-3.072 -0.64,-4.253 0.26,-0.748 0.63,-1.793 1.1,-2.496 2.98,-4.213 11.95,-7.845 25.35,-10.206 1.47,-0.258 5.3,-0.837 5.49,-0.837 0,0 0,9.266 0,9.364 0,0.06 -2.1,0.307 -5.36,0.618 -2.79,0.265 -6.19,0.653 -7.25,0.829 -5.75,0.964 -9.85,2.444 -11.91,4.319 -0.72,0.67 -1.2,1.517 -1.3,2.173 -0.24,2.546 3.23,6.248 9.33,9.942 1.66,0.997 2.76,1.623 4.22,2.351 0.56,0.269 1,0.543 1.02,0.603 0,0.06 0,0.1 0,0.1 0,0 -1.04,-0.444 -2.2,-0.972 z"
           style="fill:#ffffff;fill-opacity:1;stroke-width:0.09394446" />
        <text
           transform="scale(1.1179553,0.89449014)"
           id="text1543"
           y="48019.348"
           x="94763.398"
           style="font-style:normal;font-weight:normal;font-size:58.77628708px;line-height:1.25;font-family:sans-serif;letter-spacing:0px;word-spacing:0px;fill:#ffffff;fill-opacity:1;stroke:none;stroke-width:1.46940732"
           xml:space="preserve"><tspan
             style="font-style:normal;font-variant:normal;font-weight:normal;font-stretch:normal;font-size:58.77624893px;font-family:Candara;-inkscape-font-specification:'Candara, Normal';font-variant-ligatures:normal;font-variant-caps:normal;font-variant-numeric:normal;font-feature-settings:normal;text-align:start;writing-mode:lr-tb;text-anchor:start;fill:#ffffff;fill-opacity:1;stroke-width:1.46940732"
             y="48019.348"
             x="94763.398"
             id="tspan1541"
             sodipodi:role="line">NCBI</tspan></text>
      </g>
    </g>
  </g>
</svg>
