<?xml version="1.0" encoding="UTF-8" standalone="no"?>
<!-- Generator: Adobe Illustrator 18.0.0, SVG Export Plug-In . SVG Version: 6.00 Build 0)  -->

<svg
   xmlns:dc="http://purl.org/dc/elements/1.1/"
   xmlns:cc="http://creativecommons.org/ns#"
   xmlns:rdf="http://www.w3.org/1999/02/22-rdf-syntax-ns#"
   xmlns:svg="http://www.w3.org/2000/svg"
   xmlns="http://www.w3.org/2000/svg"
   xmlns:sodipodi="http://sodipodi.sourceforge.net/DTD/sodipodi-0.dtd"
   xmlns:inkscape="http://www.inkscape.org/namespaces/inkscape"
   version="1.1"
   id="Capa_1"
   x="0px"
   y="0px"
   viewBox="0 0 192 48"
   xml:space="preserve"
   sodipodi:docname="ncbi_expand_button_close.svg"
   inkscape:version="0.92.2 5c3e80d, 2017-08-06"
   width="192"
   height="48"><metadata
     id="metadata47"><rdf:RDF><cc:Work
         rdf:about=""><dc:format>image/svg+xml</dc:format><dc:type
           rdf:resource="http://purl.org/dc/dcmitype/StillImage" /><dc:title /></cc:Work></rdf:RDF></metadata><defs
     id="defs45" /><sodipodi:namedview
     pagecolor="#ffffff"
     bordercolor="#666666"
     borderopacity="1"
     objecttolerance="10"
     gridtolerance="10"
     guidetolerance="10"
     inkscape:pageopacity="0"
     inkscape:pageshadow="2"
     inkscape:window-width="2425"
     inkscape:window-height="1247"
     id="namedview43"
     showgrid="false"
     inkscape:pagecheckerboard="true"
     inkscape:zoom="4.3703704"
     inkscape:cx="-99.991524"
     inkscape:cy="27"
     inkscape:window-x="0"
     inkscape:window-y="0"
     inkscape:window-maximized="0"
     inkscape:current-layer="g10" /><g
     id="g10"
     style="fill:#ffffff;fill-opacity:1"
     transform="matrix(0.92593437,0,0,0.92593437,10,-1.0001122)"><g
       id="g838"
       transform="matrix(0.59999453,0,0,0.59999453,0,17.600241)"><path
         inkscape:connector-curvature="0"
         id="path2"
         d="M 46,28 H 1 C 0.447,28 0,27.552 0,27 0,26.448 0.447,26 1,26 h 45 c 0.553,0 1,0.448 1,1 0,0.552 -0.447,1 -1,1 z"
         style="fill:#ffffff;fill-opacity:1" /><path
         inkscape:connector-curvature="0"
         id="path4"
         d="m 46,28 c -0.256,0 -0.512,-0.098 -0.707,-0.293 l -16,-16 c -0.391,-0.391 -0.391,-1.023 0,-1.414 0.391,-0.391 1.023,-0.391 1.414,0 l 16,16 c 0.391,0.391 0.391,1.023 0,1.414 C 46.512,27.902 46.256,28 46,28 Z"
         style="fill:#ffffff;fill-opacity:1" /><path
         inkscape:connector-curvature="0"
         id="path6"
         d="m 30,44 c -0.256,0 -0.512,-0.098 -0.707,-0.293 -0.391,-0.391 -0.391,-1.023 0,-1.414 l 16,-16 c 0.391,-0.391 1.023,-0.391 1.414,0 0.391,0.391 0.391,1.023 0,1.414 l -16,16 C 30.512,43.902 30.256,44 30,44 Z"
         style="fill:#ffffff;fill-opacity:1" /><path
         inkscape:connector-curvature="0"
         id="path8"
         d="m 53,44 c -0.553,0 -1,-0.448 -1,-1 V 11 c 0,-0.552 0.447,-1 1,-1 0.553,0 1,0.448 1,1 v 32 c 0,0.552 -0.447,1 -1,1 z"
         style="fill:#ffffff;fill-opacity:1" /></g></g><g
     id="g12"
     transform="translate(0,-6)" /><g
     id="g14"
     transform="translate(0,-6)" /><g
     id="g16"
     transform="translate(0,-6)" /><g
     id="g18"
     transform="translate(0,-6)" /><g
     id="g20"
     transform="translate(0,-6)" /><g
     id="g22"
     transform="translate(0,-6)" /><g
     id="g24"
     transform="translate(0,-6)" /><g
     id="g26"
     transform="translate(0,-6)" /><g
     id="g28"
     transform="translate(0,-6)" /><g
     id="g30"
     transform="translate(0,-6)" /><g
     id="g32"
     transform="translate(0,-6)" /><g
     id="g34"
     transform="translate(0,-6)" /><g
     id="g36"
     transform="translate(0,-6)" /><g
     id="g38"
     transform="translate(0,-6)" /><g
     id="g40"
     transform="translate(0,-6)" /></svg>