<?xml version="1.0" encoding="iso-8859-1"?>
<!-- Generator: Adobe Illustrator 19.0.0, SVG Export Plug-In . SVG Version: 6.00 Build 0)  -->
<svg xmlns="http://www.w3.org/2000/svg" xmlns:xlink="http://www.w3.org/1999/xlink" version="1.1" id="Layer_1" x="0px" y="0px" viewBox="0 0 512 512" style="enable-background:new 0 0 512 512;" xml:space="preserve" width="512px" height="512px">
<g>
	<g>
		<path d="M494.353,46.611l-30.766-30.766c-20.064-20.064-53.872-21.231-75.366-2.6l-54.071,46.87    c-0.692,0.6-1.286,1.306-1.758,2.091l-52.635,87.676l-33.796,11.265c-2.856,0.952-5.015,3.315-5.706,6.244    c-0.691,2.929,0.183,6.007,2.311,8.136l92.105,92.104c1.648,1.647,3.865,2.543,6.141,2.543c0.665,0,1.334-0.076,1.995-0.232    c2.929-0.691,5.292-2.85,6.244-5.706l11.268-33.807l88.965-53.72c0.783-0.474,1.487-1.067,2.085-1.761l45.76-53.029    C515.656,100.451,514.409,66.668,494.353,46.611z M483.981,110.572l-44.857,51.982l-90.52,54.659    c-1.767,1.067-3.096,2.729-3.749,4.689l-7.837,23.512l-20.755-20.755c-0.004-0.004-0.007-0.009-0.011-0.013l-30.703-30.701    c-0.003-0.003-0.007-0.005-0.01-0.008l-20.757-20.757l23.512-7.837c1.966-0.656,3.633-1.992,4.699-3.768l53.578-89.243    l53.026-45.964c14.753-12.79,37.949-12.002,51.708,1.759l30.767,30.766C495.838,72.657,496.694,95.841,483.981,110.572z" fill="#FFFFFF"/>
	</g>
</g>
<g>
	<g>
		<path d="M469.736,348.922c-25.496-25.495-63.021-34.357-97.02-23.335L188.164,141.035c11.021-33.999,2.159-71.525-23.335-97.021    C137.969,17.156,97.758,8.754,62.384,22.618c-2.727,1.069-4.733,3.441-5.332,6.309c-0.599,2.867,0.288,5.844,2.36,7.916    l55.241,55.24L77.81,128.925L22.57,73.684c-2.073-2.071-5.046-2.956-7.916-2.36c-2.868,0.599-5.241,2.604-6.309,5.332    c-13.862,35.372-5.463,75.584,21.396,102.445c25.496,25.495,63.021,34.359,97.02,23.335l69.008,69.008l-85.937,85.939    l-54.658,30.56c-1.52,0.85-2.75,2.138-3.529,3.696l-24.561,49.122c-1.672,3.343-1.017,7.381,1.626,10.025l30.701,30.702    c1.667,1.667,3.89,2.543,6.143,2.543c1.319,0,2.648-0.3,3.882-0.917l49.122-24.561c1.558-0.779,2.846-2.009,3.696-3.529    l30.56-54.659l85.939-85.936l72.561,72.561c-11.022,33.999-2.159,71.525,23.336,97.021c18.263,18.262,42.696,27.99,67.586,27.99    c11.716-0.001,23.536-2.157,34.858-6.593c2.727-1.069,4.733-3.441,5.332-6.309c0.599-2.867-0.288-5.844-2.36-7.916l-55.241-55.241    l36.842-36.841l55.24,55.24c2.072,2.072,5.047,2.961,7.916,2.36c2.868-0.599,5.241-2.604,6.309-5.332    C504.995,415.995,496.596,375.783,469.736,348.922z M139.68,388.935c-0.565,0.565-1.048,1.205-1.438,1.903l-29.843,53.376    L67.267,464.78l-21.85-21.85l20.565-41.133l53.375-29.842c0.698-0.39,1.338-0.873,1.903-1.438l86.789-86.79l18.421,18.421    L139.68,388.935z M478.86,431.73l-51.052-51.052c-3.392-3.39-8.889-3.39-12.281,0l-49.122,49.122    c-1.628,1.629-2.543,3.837-2.543,6.141s0.915,4.511,2.543,6.141l51.053,51.053c-25.314,5.03-51.861-2.739-70.527-21.405    c-21.977-21.977-28.85-54.882-17.507-83.827c1.259-3.214,0.496-6.868-1.944-9.309L135.157,186.272    c-1.66-1.659-3.881-2.543-6.143-2.543c-1.064,0-2.138,0.196-3.166,0.599c-28.944,11.344-61.849,4.469-83.827-17.506    c-18.667-18.668-26.437-45.216-21.404-70.528l51.052,51.053c3.392,3.391,8.889,3.389,12.281,0l49.122-49.122    c3.391-3.392,3.391-8.889,0-12.281L82.02,34.891c25.314-5.04,51.859,2.736,70.527,21.405    c21.977,21.977,28.85,54.882,17.507,83.827c-1.259,3.214-0.496,6.868,1.944,9.309l192.321,192.32    c2.442,2.44,6.098,3.203,9.309,1.944c28.946-11.34,61.849-4.47,83.827,17.506C476.124,379.87,483.892,406.419,478.86,431.73z" fill="#FFFFFF"/>
	</g>
</g>
<g>
</g>
<g>
</g>
<g>
</g>
<g>
</g>
<g>
</g>
<g>
</g>
<g>
</g>
<g>
</g>
<g>
</g>
<g>
</g>
<g>
</g>
<g>
</g>
<g>
</g>
<g>
</g>
<g>
</g>
</svg>
