<?xml version="1.0" encoding="UTF-8" standalone="no"?>
<!-- Generator: Adobe Illustrator 19.0.0, SVG Export Plug-In . SVG Version: 6.00 Build 0)  -->

<svg
   xmlns:dc="http://purl.org/dc/elements/1.1/"
   xmlns:cc="http://creativecommons.org/ns#"
   xmlns:rdf="http://www.w3.org/1999/02/22-rdf-syntax-ns#"
   xmlns:svg="http://www.w3.org/2000/svg"
   xmlns="http://www.w3.org/2000/svg"
   xmlns:sodipodi="http://sodipodi.sourceforge.net/DTD/sodipodi-0.dtd"
   xmlns:inkscape="http://www.inkscape.org/namespaces/inkscape"
   version="1.1"
   id="Layer_1"
   x="0px"
   y="0px"
   viewBox="0 0 192 64"
   xml:space="preserve"
   width="192"
   height="64"
   sodipodi:docname="ncbi_diagnostics_button_long.svg"
   inkscape:version="0.92.2 5c3e80d, 2017-08-06"><metadata
     id="metadata49"><rdf:RDF><cc:Work
         rdf:about=""><dc:format>image/svg+xml</dc:format><dc:type
           rdf:resource="http://purl.org/dc/dcmitype/StillImage" /><dc:title /></cc:Work></rdf:RDF></metadata><defs
     id="defs47" /><sodipodi:namedview
     pagecolor="#ffffff"
     bordercolor="#666666"
     borderopacity="1"
     objecttolerance="10"
     gridtolerance="10"
     guidetolerance="10"
     inkscape:pageopacity="0"
     inkscape:pageshadow="2"
     inkscape:window-width="2230"
     inkscape:window-height="696"
     id="namedview45"
     showgrid="false"
     inkscape:pagecheckerboard="true"
     inkscape:zoom="5.2149125"
     inkscape:cx="78.7124"
     inkscape:cy="20.950699"
     inkscape:window-x="25"
     inkscape:window-y="677"
     inkscape:window-maximized="0"
     inkscape:current-layer="Layer_1" /><g
     id="g862"
     transform="matrix(0.09832891,0,0,0.09765606,23.827776,52.033729)"><g
       id="g869"
       transform="translate(-10.169947)"><g
         id="g844"
         transform="translate(8.9088752)"><g
           transform="matrix(0.92062603,0,0,0.92369929,23.952793,-452.28066)"
           id="g6"><g
             id="g4"><path
               style="fill:#ffffff"
               inkscape:connector-curvature="0"
               id="path2"
               d="M 494.353,46.611 463.587,15.845 c -20.064,-20.064 -53.872,-21.231 -75.366,-2.6 l -54.071,46.87 c -0.692,0.6 -1.286,1.306 -1.758,2.091 l -52.635,87.676 -33.796,11.265 c -2.856,0.952 -5.015,3.315 -5.706,6.244 -0.691,2.929 0.183,6.007 2.311,8.136 l 92.105,92.104 c 1.648,1.647 3.865,2.543 6.141,2.543 0.665,0 1.334,-0.076 1.995,-0.232 2.929,-0.691 5.292,-2.85 6.244,-5.706 l 11.268,-33.807 88.965,-53.72 c 0.783,-0.474 1.487,-1.067 2.085,-1.761 l 45.76,-53.029 c 18.527,-21.468 17.28,-55.251 -2.776,-75.308 z m -10.372,63.961 -44.857,51.982 -90.52,54.659 c -1.767,1.067 -3.096,2.729 -3.749,4.689 l -7.837,23.512 -20.755,-20.755 c -0.004,-0.004 -0.007,-0.009 -0.011,-0.013 l -30.703,-30.701 c -0.003,-0.003 -0.007,-0.005 -0.01,-0.008 l -20.757,-20.757 23.512,-7.837 c 1.966,-0.656 3.633,-1.992 4.699,-3.768 l 53.578,-89.243 53.026,-45.964 c 14.753,-12.79 37.949,-12.002 51.708,1.759 l 30.767,30.766 c 13.766,13.764 14.622,36.948 1.909,51.679 z" /></g></g><g
           transform="matrix(0.98423894,0,0,0.99101528,0.02760561,-465.41173)"
           id="g12"><g
             id="g10"><path
               style="fill:#ffffff"
               inkscape:connector-curvature="0"
               id="path8"
               d="M 469.736,348.922 C 444.24,323.427 406.715,314.565 372.716,325.587 L 188.164,141.035 C 199.185,107.036 190.323,69.51 164.829,44.014 137.969,17.156 97.758,8.754 62.384,22.618 c -2.727,1.069 -4.733,3.441 -5.332,6.309 -0.599,2.867 0.288,5.844 2.36,7.916 L 114.653,92.083 77.81,128.925 22.57,73.684 c -2.073,-2.071 -5.046,-2.956 -7.916,-2.36 -2.868,0.599 -5.241,2.604 -6.309,5.332 -13.862,35.372 -5.463,75.584 21.396,102.445 25.496,25.495 63.021,34.359 97.02,23.335 l 69.008,69.008 -85.937,85.939 -54.658,30.56 c -1.52,0.85 -2.75,2.138 -3.529,3.696 l -24.561,49.122 c -1.672,3.343 -1.017,7.381 1.626,10.025 l 30.701,30.702 c 1.667,1.667 3.89,2.543 6.143,2.543 1.319,0 2.648,-0.3 3.882,-0.917 l 49.122,-24.561 c 1.558,-0.779 2.846,-2.009 3.696,-3.529 l 30.56,-54.659 85.939,-85.936 72.561,72.561 c -11.022,33.999 -2.159,71.525 23.336,97.021 18.263,18.262 42.696,27.99 67.586,27.99 11.716,-10e-4 23.536,-2.157 34.858,-6.593 2.727,-1.069 4.733,-3.441 5.332,-6.309 0.599,-2.867 -0.288,-5.844 -2.36,-7.916 l -55.241,-55.241 36.842,-36.841 55.24,55.24 c 2.072,2.072 5.047,2.961 7.916,2.36 2.868,-0.599 5.241,-2.604 6.309,-5.332 13.863,-35.374 5.464,-75.586 -21.396,-102.447 z M 139.68,388.935 c -0.565,0.565 -1.048,1.205 -1.438,1.903 l -29.843,53.376 -41.132,20.566 -21.85,-21.85 20.565,-41.133 53.375,-29.842 c 0.698,-0.39 1.338,-0.873 1.903,-1.438 l 86.789,-86.79 18.421,18.421 z m 339.18,42.795 -51.052,-51.052 c -3.392,-3.39 -8.889,-3.39 -12.281,0 L 366.405,429.8 c -1.628,1.629 -2.543,3.837 -2.543,6.141 0,2.304 0.915,4.511 2.543,6.141 l 51.053,51.053 c -25.314,5.03 -51.861,-2.739 -70.527,-21.405 -21.977,-21.977 -28.85,-54.882 -17.507,-83.827 1.259,-3.214 0.496,-6.868 -1.944,-9.309 L 135.157,186.272 c -1.66,-1.659 -3.881,-2.543 -6.143,-2.543 -1.064,0 -2.138,0.196 -3.166,0.599 C 96.904,195.672 63.999,188.797 42.021,166.822 23.354,148.154 15.584,121.606 20.617,96.294 l 51.052,51.053 c 3.392,3.391 8.889,3.389 12.281,0 l 49.122,-49.122 c 3.391,-3.392 3.391,-8.889 0,-12.281 L 82.02,34.891 c 25.314,-5.04 51.859,2.736 70.527,21.405 21.977,21.977 28.85,54.882 17.507,83.827 -1.259,3.214 -0.496,6.868 1.944,9.309 l 192.321,192.32 c 2.442,2.44 6.098,3.203 9.309,1.944 28.946,-11.34 61.849,-4.47 83.827,17.506 18.669,18.668 26.437,45.217 21.405,70.528 z" /></g></g></g></g></g><g
     id="g14"
     transform="translate(0,-448)" /><g
     id="g16"
     transform="translate(0,-448)" /><g
     id="g18"
     transform="translate(0,-448)" /><g
     id="g20"
     transform="translate(0,-448)" /><g
     id="g22"
     transform="translate(0,-448)" /><g
     id="g24"
     transform="translate(0,-448)" /><g
     id="g26"
     transform="translate(0,-448)" /><g
     id="g28"
     transform="translate(0,-448)" /><g
     id="g30"
     transform="translate(0,-448)" /><g
     id="g32"
     transform="translate(0,-448)" /><g
     id="g34"
     transform="translate(0,-448)" /><g
     id="g36"
     transform="translate(0,-448)" /><g
     id="g38"
     transform="translate(0,-448)" /><g
     id="g40"
     transform="translate(0,-448)" /><g
     id="g42"
     transform="translate(0,-448)" /><text
     xml:space="preserve"
     style="font-style:normal;font-weight:normal;font-size:31.22057724px;line-height:1.25;font-family:sans-serif;letter-spacing:0px;word-spacing:0px;fill:#000000;fill-opacity:1;stroke:none;stroke-width:0.78051448"
     x="143.1736"
     y="25.349098"
     id="text888"
     transform="scale(0.62169831,1.6084972)"><tspan
       sodipodi:role="line"
       id="tspan886"
       x="143.1736"
       y="25.349098"
       style="font-style:normal;font-variant:normal;font-weight:normal;font-stretch:normal;font-size:17.33333397px;font-family:Candara;-inkscape-font-specification:'Candara, Normal';font-variant-ligatures:normal;font-variant-caps:normal;font-variant-numeric:normal;font-feature-settings:normal;text-align:start;writing-mode:lr-tb;text-anchor:start;fill:#ffffff;fill-opacity:1;stroke-width:0.78051448">DIAGNOSTICS</tspan></text>
<text
     xml:space="preserve"
     style="font-style:normal;font-weight:normal;font-size:40px;line-height:1.25;font-family:sans-serif;letter-spacing:0px;word-spacing:0px;fill:#000000;fill-opacity:1;stroke:none"
     x="154.98305"
     y="67.389832"
     id="text875"><tspan
       sodipodi:role="line"
       id="tspan873"
       x="154.98305"
       y="102.78046" /></text>
</svg>